<?xml version="1.0" standalone="no"?>
<!DOCTYPE svg PUBLIC "-//W3C//DTD SVG 20010904//EN"
 "http://www.w3.org/TR/2001/REC-SVG-20010904/DTD/svg10.dtd">
<svg version="1.0" xmlns="http://www.w3.org/2000/svg"
 width="1490.000000pt" height="1490.000000pt" viewBox="0 0 1490.000000 1490.000000"
 preserveAspectRatio="xMidYMid meet">

<g transform="translate(0.000000,1490.000000) scale(0.100000,-0.100000)"
fill="#000000" stroke="none">
<path d="M1127 14661 l-57 -60 0 -369 0 -369 63 -60 63 -61 109 -7 c321 -20
680 -74 868 -131 81 -24 247 -110 298 -154 26 -22 63 -63 82 -92 64 -98 138
-260 153 -338 3 -19 10 -39 14 -45 4 -5 11 -35 15 -65 4 -30 11 -59 15 -65 4
-5 11 -41 14 -80 4 -38 13 -117 21 -175 37 -278 40 -629 40 -5140 0 -4528 -2
-4796 -41 -5095 -27 -214 -49 -344 -63 -385 -5 -14 -21 -64 -35 -111 -31 -98
-100 -239 -151 -306 -171 -223 -644 -358 -1365 -388 l-175 -8 -62 -60 -63 -60
0 -371 0 -372 58 -57 58 -57 6310 0 6310 0 56 57 57 58 6 95 c3 52 10 145 16
205 6 61 17 220 25 355 9 135 22 333 29 440 8 107 21 296 29 420 9 124 18 248
21 275 3 28 13 163 21 300 9 138 22 338 30 445 7 107 20 290 28 405 8 116 19
278 25 360 6 83 16 218 22 300 6 83 17 247 25 365 7 118 17 232 20 252 6 35 3
41 -51 98 l-58 60 -381 0 -382 0 -55 -58 c-58 -60 -77 -105 -94 -227 -4 -27
-11 -54 -15 -60 -4 -5 -11 -32 -15 -60 -4 -27 -10 -54 -15 -60 -4 -5 -11 -28
-14 -50 -4 -22 -14 -62 -21 -90 -8 -27 -24 -84 -35 -125 -12 -41 -25 -86 -30
-100 -5 -14 -20 -65 -35 -115 -15 -49 -30 -97 -34 -105 -5 -9 -12 -31 -16 -50
-4 -19 -11 -39 -15 -45 -4 -5 -13 -26 -18 -45 -14 -47 -40 -120 -52 -145 -5
-11 -25 -60 -45 -110 -162 -400 -377 -748 -600 -970 -175 -175 -467 -364 -725
-470 -36 -14 -79 -33 -97 -41 -17 -8 -37 -14 -45 -14 -8 0 -18 -4 -24 -9 -5
-4 -49 -20 -99 -35 -49 -15 -101 -32 -115 -36 -14 -5 -43 -12 -65 -16 -22 -4
-44 -10 -50 -14 -5 -4 -32 -11 -60 -14 -27 -4 -65 -12 -83 -17 -53 -17 -330
-62 -512 -83 -361 -43 -570 -56 -991 -65 -511 -10 -1090 7 -1379 40 -203 23
-318 38 -405 53 -191 31 -380 72 -407 87 -10 5 -26 9 -35 9 -10 0 -30 6 -44
14 -14 7 -39 16 -55 20 -49 12 -204 77 -302 127 -111 57 -261 160 -321 220
-174 174 -304 454 -365 784 -8 39 -16 77 -20 85 -3 8 -13 96 -23 195 -15 161
-17 381 -20 2126 l-4 1946 118 -3 c65 -2 327 -9 583 -15 766 -17 1203 -52
1520 -120 25 -6 68 -15 95 -20 28 -5 59 -14 70 -18 11 -5 71 -25 133 -45 63
-20 130 -43 150 -52 269 -120 406 -222 520 -387 49 -71 122 -205 151 -277 7
-19 20 -48 27 -65 7 -16 25 -68 39 -115 15 -47 30 -92 34 -100 5 -9 12 -31 15
-50 4 -19 11 -44 16 -55 11 -28 38 -138 86 -360 8 -38 22 -108 29 -154 8 -47
16 -90 19 -97 3 -7 10 -50 16 -96 11 -82 12 -84 68 -141 l56 -57 356 0 356 0
52 53 52 53 0 2729 0 2729 -57 58 -57 58 -346 0 -346 0 -61 -62 -62 -63 -11
-95 c-6 -52 -13 -104 -16 -115 -3 -12 -11 -64 -19 -116 -28 -192 -97 -527
-116 -561 -5 -10 -9 -24 -9 -33 0 -8 -7 -36 -15 -62 -9 -26 -27 -84 -41 -128
-14 -44 -29 -89 -34 -100 -71 -167 -165 -319 -245 -400 -225 -224 -703 -392
-1280 -450 -77 -8 -154 -17 -172 -20 -123 -22 -878 -53 -1330 -54 l-343 -1 0
2288 c0 2216 3 2465 31 2642 14 90 39 161 58 167 9 3 25 9 36 14 24 11 101 26
205 40 112 15 3098 6 3170 -9 30 -7 125 -16 210 -22 162 -10 357 -31 469 -50
141 -23 179 -30 251 -44 475 -93 847 -254 1125 -488 116 -97 216 -214 317
-368 34 -52 138 -238 138 -247 0 -2 15 -36 33 -76 19 -40 44 -101 57 -137 13
-36 27 -69 30 -75 4 -5 11 -26 15 -45 4 -19 11 -41 16 -50 9 -17 64 -204 86
-295 45 -187 67 -297 98 -485 25 -149 24 -146 85 -204 l59 -56 398 0 399 0 61
63 60 62 -7 225 c-5 124 -15 439 -23 700 -9 261 -18 518 -22 570 -3 52 -13
300 -21 550 -9 250 -22 635 -30 855 -8 220 -17 477 -20 570 l-5 170 -57 58
-56 57 -5887 0 -5886 0 -56 -59z m11804 -158 c0 -49 5 -191 10 -318 14 -332
35 -948 53 -1495 8 -261 19 -578 26 -705 6 -126 15 -372 21 -545 6 -173 13
-348 16 -388 l5 -72 -384 2 -383 3 -7 45 c-3 25 -12 81 -18 125 -7 44 -16 89
-20 100 -5 11 -12 42 -15 69 -4 26 -18 96 -32 155 -13 58 -29 126 -34 151 -5
25 -14 52 -18 60 -5 9 -12 31 -16 50 -9 46 -44 160 -56 182 -5 10 -9 22 -9 28
0 10 -57 160 -92 240 -34 78 -119 244 -134 261 -8 8 -14 19 -14 23 0 11 -98
153 -158 231 -77 98 -261 279 -360 354 -178 134 -381 241 -612 320 -36 13 -72
26 -81 31 -9 5 -34 12 -55 16 -22 4 -52 13 -69 19 -16 7 -52 16 -80 20 -27 4
-54 10 -60 13 -10 7 -79 21 -233 47 -45 8 -90 16 -100 19 -47 15 -503 61 -747
75 -481 28 -762 33 -1890 29 -1137 -4 -1375 -10 -1410 -37 -5 -5 -26 -11 -46
-15 -44 -8 -92 -30 -137 -64 -46 -35 -87 -129 -111 -257 -21 -110 -21 -112
-19 -2595 l3 -2485 265 -3 c146 -2 355 1 465 7 110 6 319 15 465 21 306 11
662 34 770 50 41 6 107 15 145 20 188 25 476 85 525 110 9 4 31 11 50 15 19 4
41 11 50 15 8 4 42 18 75 30 224 84 385 186 536 339 131 134 251 337 314 531
15 47 31 94 35 105 5 11 12 36 16 55 3 19 10 41 15 50 4 8 13 38 19 65 6 28
20 91 31 140 45 199 72 352 95 540 9 72 20 140 25 153 l9 22 320 0 320 0 0
-2705 0 -2705 -324 0 c-301 0 -325 1 -330 18 -2 9 -8 46 -11 82 -4 36 -11 85
-17 110 -5 25 -16 79 -23 120 -8 41 -19 102 -25 135 -6 33 -15 67 -19 75 -5 9
-12 36 -15 60 -7 44 -14 72 -56 220 -24 84 -33 111 -86 260 -95 267 -252 496
-454 664 -64 53 -209 141 -304 186 -115 53 -302 119 -404 141 -238 53 -372 74
-587 93 -82 8 -161 17 -175 20 -73 17 -794 41 -1235 41 l-480 0 -3 -2040 c-2
-1453 0 -2070 8 -2145 55 -516 176 -837 417 -1107 170 -190 472 -375 758 -463
39 -12 79 -26 90 -30 20 -8 146 -40 240 -60 108 -24 236 -44 505 -79 107 -14
301 -29 545 -42 234 -13 1414 -5 1465 10 19 5 116 15 216 20 99 6 205 16 235
21 29 6 88 14 129 20 152 19 415 64 464 79 17 5 51 13 76 16 25 4 50 11 55 15
6 4 30 11 55 15 24 4 51 11 60 15 8 4 53 20 100 35 47 14 99 33 117 41 17 8
38 14 46 14 9 0 18 4 21 9 3 5 18 12 33 16 35 8 264 122 345 171 431 261 746
611 998 1112 107 213 211 475 294 737 21 66 42 129 46 140 5 11 13 38 18 60 6
22 20 74 32 115 22 74 38 138 60 235 6 28 15 59 20 70 4 11 14 47 20 80 7 33
18 85 25 115 l12 55 352 3 353 2 -6 -122 c-4 -68 -11 -168 -17 -223 -5 -55
-17 -212 -25 -350 -24 -379 -70 -1035 -79 -1125 -3 -30 -13 -167 -21 -305 -16
-248 -30 -459 -58 -855 -39 -542 -59 -833 -71 -1025 -7 -116 -13 -211 -14
-212 -1 -2 -2829 -3 -6286 -3 l-6285 0 0 349 0 349 128 11 c70 6 199 16 287
22 88 5 169 13 179 16 11 3 63 11 115 19 198 27 388 71 486 113 173 74 272
137 371 235 112 112 196 254 245 411 11 39 25 79 30 90 14 33 43 192 68 370
35 249 35 319 35 5170 0 4820 -1 4944 -34 5190 -27 201 -32 232 -40 250 -5 11
-12 36 -15 55 -12 65 -75 237 -111 306 -79 149 -155 239 -289 342 -25 20 -135
81 -156 87 -13 4 -28 11 -34 15 -41 29 -273 83 -495 114 -52 8 -106 17 -120
20 -14 3 -110 13 -215 21 -104 9 -200 18 -212 21 l-23 6 0 349 0 349 5860 0
5860 0 1 -87z"/>
</g>
</svg>
