<?xml version="1.0" standalone="no"?>
<!DOCTYPE svg PUBLIC "-//W3C//DTD SVG 20010904//EN"
 "http://www.w3.org/TR/2001/REC-SVG-20010904/DTD/svg10.dtd">
<svg version="1.0" xmlns="http://www.w3.org/2000/svg"
 width="1490.000000pt" height="1490.000000pt" viewBox="0 0 1490.000000 1490.000000"
 preserveAspectRatio="xMidYMid meet">

<g transform="translate(0.000000,1490.000000) scale(0.100000,-0.100000)"
fill="#000000" stroke="none">
<path d="M1137 14652 l-57 -58 0 -360 0 -360 63 -61 62 -61 95 -6 c219 -15
544 -58 745 -100 183 -38 371 -125 459 -212 58 -59 137 -199 179 -319 74 -212
98 -347 130 -730 18 -219 18 -9614 0 -9825 -38 -441 -84 -659 -183 -863 -91
-188 -184 -271 -409 -366 -208 -88 -640 -160 -1061 -177 l-165 -6 -58 -56 -57
-56 0 -371 0 -371 53 -52 53 -52 6310 0 6310 0 51 53 52 52 11 145 c6 80 17
237 25 350 13 193 20 297 46 650 29 416 63 909 83 1210 8 124 18 252 21 285 3
33 12 161 21 285 8 124 21 317 29 430 8 113 21 309 29 435 9 127 20 281 26
344 l11 115 -58 58 -57 58 -371 0 -371 0 -56 -58 c-61 -61 -61 -61 -104 -252
-14 -63 -30 -128 -35 -145 -5 -16 -27 -100 -50 -185 -56 -210 -116 -401 -197
-620 -163 -442 -344 -770 -575 -1045 -301 -358 -814 -635 -1417 -766 -187 -40
-360 -68 -580 -93 -74 -9 -173 -20 -220 -26 -47 -5 -172 -15 -279 -21 -107 -5
-198 -12 -202 -15 -16 -9 -1118 -4 -1229 6 -63 6 -180 15 -260 20 -995 68
-1637 319 -1887 740 -148 249 -236 568 -263 948 -6 99 -10 842 -10 2083 l0
1929 23 -4 c12 -3 202 -8 422 -11 591 -9 1127 -35 1360 -65 44 -5 116 -15 160
-20 323 -42 602 -121 830 -237 107 -54 234 -141 295 -203 70 -69 167 -215 225
-334 56 -117 144 -381 190 -566 19 -80 40 -161 45 -180 13 -48 73 -376 85
-461 5 -40 14 -55 65 -103 l59 -56 338 0 339 0 62 63 62 63 0 2713 0 2712 -57
60 -56 59 -346 0 -347 0 -56 -57 c-57 -58 -57 -59 -67 -138 -9 -73 -33 -229
-60 -395 -6 -36 -15 -83 -20 -105 -6 -22 -20 -85 -32 -140 -45 -208 -122 -459
-176 -573 -80 -171 -180 -306 -286 -385 -239 -179 -574 -300 -1022 -367 -387
-59 -1081 -99 -1712 -100 l-323 0 0 2368 c0 1563 4 2404 10 2477 6 60 20 143
32 183 21 71 24 75 63 92 23 10 77 26 121 36 74 18 158 19 1454 22 899 2 1449
-1 1590 -8 951 -48 1482 -153 1934 -381 296 -150 484 -318 672 -601 217 -328
394 -859 480 -1438 l15 -105 62 -62 61 -63 396 0 396 0 56 58 57 57 -9 280
c-5 154 -14 399 -20 545 -14 351 -28 754 -40 1140 -5 173 -14 405 -19 515 -6
110 -13 297 -16 415 -3 118 -10 334 -16 480 l-11 265 -51 53 -51 52 -5881 0
-5881 0 -57 -58z m11805 -252 c4 -107 11 -316 18 -465 6 -148 15 -412 20 -585
5 -173 14 -427 20 -565 11 -270 22 -566 45 -1270 8 -247 17 -469 20 -492 l6
-43 -390 0 -391 0 -4 23 c-3 12 -10 51 -16 87 -87 516 -189 865 -349 1195
-308 635 -821 1023 -1566 1185 -55 11 -118 25 -140 31 -99 23 -450 72 -595 84
-41 3 -118 10 -170 16 -286 29 -808 39 -1973 39 -1234 0 -1366 -4 -1520 -44
-166 -43 -207 -89 -268 -296 -11 -37 -14 -515 -16 -2574 l-3 -2528 367 5 c428
6 942 23 1128 37 72 6 191 15 265 20 74 5 164 14 200 20 36 5 101 14 145 20
157 19 242 36 465 90 25 6 92 27 150 47 459 157 748 423 904 829 43 113 107
336 140 486 40 181 78 395 104 588 l17 125 333 3 332 2 0 -2715 0 -2715 -332
2 -333 3 -21 125 c-42 250 -91 481 -134 629 -11 39 -29 102 -40 140 -28 98
-85 251 -129 346 -39 83 -136 245 -168 280 -10 11 -40 47 -68 80 -63 75 -228
205 -339 268 -92 53 -290 136 -383 162 -321 90 -563 127 -1008 155 -88 6 -223
15 -300 21 -77 5 -400 13 -718 16 l-577 6 2 -2119 c3 -1610 6 -2132 15 -2174
7 -30 20 -98 29 -150 81 -473 276 -807 609 -1045 137 -98 380 -216 555 -270
331 -101 787 -170 1285 -194 1066 -52 2054 12 2680 175 125 32 298 84 340 103
11 4 47 19 80 31 105 40 257 115 371 183 632 376 1041 985 1338 1997 66 223
74 253 111 405 20 83 40 164 45 180 4 17 14 56 20 88 l11 57 360 0 359 0 -1
-42 c0 -24 -4 -97 -10 -163 -5 -66 -15 -214 -23 -330 -8 -115 -19 -275 -25
-355 -16 -219 -45 -639 -76 -1085 -16 -244 -31 -451 -46 -655 -6 -80 -17 -237
-25 -350 -24 -368 -43 -632 -53 -775 -6 -77 -15 -214 -21 -305 -7 -103 -16
-168 -23 -172 -7 -4 -2838 -7 -6292 -5 l-6280 2 -3 357 c-2 336 -1 358 15 359
472 16 942 85 1175 173 396 148 603 425 689 916 5 30 14 78 19 105 5 28 17
131 27 230 17 170 18 448 18 5040 l0 4860 -22 200 c-34 297 -56 410 -115 572
-58 162 -133 284 -235 386 -121 120 -263 199 -453 250 -155 43 -484 90 -803
116 -53 4 -99 10 -102 13 -4 4 -8 605 -5 713 0 3 2638 4 5863 3 l5862 -3 7
-195z"/>
</g>
</svg>
